<?xml version="1.0" encoding="UTF-8" standalone="no"?> <svg xmlns="http://www.w3.org/2000/svg" width="52.61" height="75.059" viewBox="0 0 52.61 75.059">
  <path id="Christmas_tree" data-name="Christmas tree" d="M1185.52-420.536a95.749,95.749,0,0,1-24.72-3.665s4.56-3.931,7.22-6.219c2.58-2.221,9.85-10.416,7.75-10.587s-7.13-1.094-7.13-1.094c3.76-2.512,13.29-20.529,13.29-20.529a16.115,16.115,0,0,1-4.25-.722c2.92-2.528,8.17-18.571,8.17-18.571l.06.181c.59,1.772,5.38,16.02,8.11,18.39a16.04,16.04,0,0,1-4.24.722s9.53,18.017,13.29,20.529c0,0-5.04.924-7.14,1.094s5.18,8.366,7.76,10.587c2.65,2.288,7.22,6.219,7.22,6.219a95.852,95.852,0,0,1-25.06,3.67Zm-21.83,11.172h44.33m-24.86-11.167v11.167h5.39v-11.167m.83-20.142a47.872,47.872,0,0,0,6.59-.337" transform="translate(-1159.55 483.173)" fill="none" stroke="#ff5e5e" stroke-linecap="round" stroke-linejoin="round" stroke-width="2.5"/>
</svg>
